<svg width="30" height="30" viewBox="0 0 30 30" fill="none" xmlns="http://www.w3.org/2000/svg">
<path d="M23.509 13.2604C18.7476 10.4297 10.8937 10.1694 6.34834 11.5504C5.61839 11.7721 4.84655 11.3596 4.62538 10.6289C4.4042 9.89779 4.81582 9.12559 5.54625 8.90344C10.764 7.31771 19.4378 7.62409 24.9192 10.8815C25.5759 11.2716 25.7913 12.1205 25.402 12.7768C25.0125 13.434 24.1639 13.6506 23.509 13.2604ZM23.3531 17.4533C23.0192 17.996 22.3104 18.166 21.7691 17.833C17.7995 15.3902 11.7463 14.6825 7.04996 16.1096C6.44094 16.2939 5.79767 15.9502 5.61275 15.3416C5.42918 14.7319 5.77273 14.089 6.38065 13.9036C11.7456 12.2739 18.4149 13.0633 22.9742 15.8683C23.5155 16.202 23.6859 16.9119 23.3531 17.4533ZM21.5456 21.4799C21.2803 21.9156 20.7134 22.0523 20.2799 21.7867C16.8111 19.6644 12.4451 19.1849 7.30338 20.3608C6.80783 20.4745 6.31409 20.1636 6.20102 19.6677C6.08755 19.1717 6.39685 18.6774 6.89349 18.5642C12.5202 17.2765 17.3469 17.8307 21.2403 20.2125C21.6744 20.4778 21.8111 21.0456 21.5456 21.4799ZM14.7714 0.150848C6.61354 0.150848 0 6.77136 0 14.9383C0 23.106 6.61354 29.7263 14.7714 29.7263C22.9296 29.7263 29.5427 23.106 29.5427 14.9383C29.5427 6.77136 22.9296 0.150848 14.7714 0.150848Z" fill="black"/>
</svg>
