<svg width="30" height="30" viewBox="0 0 30 30" fill="none" xmlns="http://www.w3.org/2000/svg">
<path d="M23.509 13.1095C18.7476 10.2788 10.8937 10.0185 6.34834 11.3996C5.61839 11.6212 4.84655 11.2087 4.62538 10.478C4.4042 9.74691 4.81582 8.97471 5.54625 8.75257C10.764 7.16684 19.4378 7.47321 24.9192 10.7307C25.5759 11.1207 25.7913 11.9696 25.402 12.6259C25.0125 13.2831 24.1639 13.4997 23.509 13.1095ZM23.3531 17.3024C23.0192 17.8451 22.3104 18.0151 21.7691 17.6821C17.7995 15.2393 11.7463 14.5317 7.04996 15.9588C6.44094 16.143 5.79767 15.7993 5.61275 15.1907C5.42918 14.581 5.77273 13.9382 6.38065 13.7528C11.7456 12.123 18.4149 12.9124 22.9742 15.7174C23.5155 16.0511 23.6859 16.7611 23.3531 17.3024ZM21.5456 21.3291C21.2803 21.7647 20.7134 21.9014 20.2799 21.6358C16.8111 19.5135 12.4451 19.034 7.30338 20.2099C6.80783 20.3236 6.31409 20.0127 6.20102 19.5168C6.08755 19.0208 6.39685 18.5265 6.89349 18.4134C12.5202 17.1256 17.3469 17.6798 21.2403 20.0616C21.6744 20.3269 21.8111 20.8947 21.5456 21.3291ZM14.7714 -3.05176e-05C6.61354 -3.05176e-05 0 6.62048 0 14.7874C0 22.9551 6.61354 29.5754 14.7714 29.5754C22.9296 29.5754 29.5427 22.9551 29.5427 14.7874C29.5427 6.62048 22.9296 -3.05176e-05 14.7714 -3.05176e-05Z" fill="#1ED760"/>
</svg>
