<svg width="30" height="31" viewBox="0 0 30 31" fill="none" xmlns="http://www.w3.org/2000/svg">
<path d="M23.509 13.685C18.7476 10.8542 10.8937 10.5939 6.34834 11.975C5.61839 12.1966 4.84655 11.7841 4.62538 11.0534C4.4042 10.3224 4.81582 9.55015 5.54625 9.328C10.764 7.74228 19.4378 8.04865 24.9192 11.3061C25.5759 11.6962 25.7913 12.545 25.402 13.2014C25.0125 13.8585 24.1639 14.0752 23.509 13.685ZM23.3531 17.8778C23.0192 18.4205 22.3104 18.5906 21.7691 18.2576C17.7995 15.8148 11.7463 15.1071 7.04996 16.5342C6.44094 16.7184 5.79767 16.3747 5.61275 15.7661C5.42918 15.1564 5.77273 14.5136 6.38065 14.3282C11.7456 12.6985 18.4149 13.4878 22.9742 16.2928C23.5155 16.6266 23.6859 17.3365 23.3531 17.8778ZM21.5456 21.9045C21.2803 22.3402 20.7134 22.4768 20.2799 22.2113C16.8111 20.0889 12.4451 19.6095 7.30338 20.7853C6.80783 20.8991 6.31409 20.5881 6.20102 20.0922C6.08755 19.5962 6.39685 19.102 6.89349 18.9888C12.5202 17.701 17.3469 18.2553 21.2403 20.637C21.6744 20.9024 21.8111 21.4702 21.5456 21.9045ZM14.7714 0.575409C6.61354 0.575409 0 7.19592 0 15.3629C0 23.5305 6.61354 30.1509 14.7714 30.1509C22.9296 30.1509 29.5427 23.5305 29.5427 15.3629C29.5427 7.19592 22.9296 0.575409 14.7714 0.575409Z" fill="white"/>
</svg>
